# xmcd
#
# Track frame offsets:
#	150
#	14117
#	27870
#	42197
#	55090
#	68120
#	81940
#	95010
#	107875
#	120877
#	133442
#	145842
#	160360
#	173845
#	187395
#	200485
#	214297
#	228130
#	241780
#	254995
#	267687
#	279955
#	293417
#	306587
#	320732
#	334622
#
# Disc length: 4640 seconds
#
# Revision: 1
# Processed by: cddbd v1.5.1PL0 Copyright (c) Steve Scherf et al.
# Submitted via: audiograbber 1.81.03
#
DISCID=97121e1a
DTITLE=Big Bill Broonzy - Complete Recorded Works Vol. 6
DYEAR=1937
DGENRE=Blues
TTITLE0=Horny Frog (take 2)
TTITLE1=Mean Old World (take 1)
TTITLE2=Mean Old World (take 2)
TTITLE3=Barrel House When it Rains
TTITLE4=You Do Me Any Old Way (take 1)
TTITLE5=You Do Me Any Old Way (take 2)
TTITLE6=Down in the Alley (take 1) (Midnight Ramblers)
TTITLE7=Down in the Alley (take 2) (Midnight Ramblers)
TTITLE8=Stuff They Call Money (Midnight Ramblers)
TTITLE9=Louise, Louise Blues (take 1)
TTITLE10=Louise, Louise Blues (take 2)
TTITLE11=Let Me Be Your Winder
TTITLE12=Hattie Blues (take 1)
TTITLE13=Hattie Blues (take 2)
TTITLE14=My Old Lizzie
TTITLE15=Come Home Early (take 1)
TTITLE16=Come Home Early (take 2)
TTITLE17=Come Home Early (take 3)
TTITLE18=Come Home Early (take 4)
TTITLE19=My Gal is Gone
TTITLE20=Evil Hearted Me
TTITLE21=I Want My Hands On It (take 1)
TTITLE22=I Want My Hands On It (take 2)
TTITLE23=It's Too Late Now (take 1)
TTITLE24=It's Too Late Now (take 2)
TTITLE25=Made a Date With An Angel (Got No Walking Shoes) (take 1)
EXTD=DOCD-5128   
EXTT0=
EXTT1=
EXTT2=
EXTT3=
EXTT4=
EXTT5=
EXTT6=
EXTT7=
EXTT8=
EXTT9=
EXTT10=
EXTT11=
EXTT12=
EXTT13=
EXTT14=
EXTT15=
EXTT16=
EXTT17=
EXTT18=
EXTT19=
EXTT20=
EXTT21=
EXTT22=
EXTT23=
EXTT24=
EXTT25=
PLAYORDER=
